<?xml version="1.0" encoding="UTF-8" standalone="no"?>
<!DOCTYPE svg PUBLIC "-//W3C//DTD SVG 1.1//EN"
 "http://www.w3.org/Graphics/SVG/1.1/DTD/svg11.dtd">
<!-- Generated by graphviz version 14.1.1 (20251213.1925)
 -->
<!-- Title: InheritanceTree Pages: 1 -->
<svg width="358pt" height="429pt"
 viewBox="0.00 0.00 358.00 429.00" xmlns="http://www.w3.org/2000/svg" xmlns:xlink="http://www.w3.org/1999/xlink">
<g id="graph0" class="graph" transform="scale(1 1) rotate(0) translate(4 424.5)">
<title>InheritanceTree</title>
<polygon fill="white" stroke="none" points="-4,4 -4,-424.5 354,-424.5 354,4 -4,4"/>
<text xml:space="preserve" text-anchor="middle" x="175" y="-7.2" font-family="Times New Roman,serif" font-size="14.00">simple_audio &#45; Inheritance Hierarchy</text>
<!-- AUDIO_BUFFER -->
<g id="node1" class="node">
<title>AUDIO_BUFFER</title>
<path fill="none" stroke="black" d="M107.5,-60.5C107.5,-60.5 14.25,-60.5 14.25,-60.5 8.25,-60.5 2.25,-54.5 2.25,-48.5 2.25,-48.5 2.25,-36.5 2.25,-36.5 2.25,-30.5 8.25,-24.5 14.25,-24.5 14.25,-24.5 107.5,-24.5 107.5,-24.5 113.5,-24.5 119.5,-30.5 119.5,-36.5 119.5,-36.5 119.5,-48.5 119.5,-48.5 119.5,-54.5 113.5,-60.5 107.5,-60.5"/>
<text xml:space="preserve" text-anchor="middle" x="60.88" y="-37.45" font-family="Times New Roman,serif" font-size="14.00">AUDIO_BUFFER</text>
</g>
<!-- AUDIO_DEVICE -->
<g id="node2" class="node">
<title>AUDIO_DEVICE</title>
<path fill="none" stroke="black" d="M106.75,-132.5C106.75,-132.5 15,-132.5 15,-132.5 9,-132.5 3,-126.5 3,-120.5 3,-120.5 3,-108.5 3,-108.5 3,-102.5 9,-96.5 15,-96.5 15,-96.5 106.75,-96.5 106.75,-96.5 112.75,-96.5 118.75,-102.5 118.75,-108.5 118.75,-108.5 118.75,-120.5 118.75,-120.5 118.75,-126.5 112.75,-132.5 106.75,-132.5"/>
<text xml:space="preserve" text-anchor="middle" x="60.88" y="-109.45" font-family="Times New Roman,serif" font-size="14.00">AUDIO_DEVICE</text>
</g>
<!-- AUDIO_STREAM -->
<g id="node3" class="node">
<title>AUDIO_STREAM</title>
<path fill="none" stroke="black" d="M109.75,-204.5C109.75,-204.5 12,-204.5 12,-204.5 6,-204.5 0,-198.5 0,-192.5 0,-192.5 0,-180.5 0,-180.5 0,-174.5 6,-168.5 12,-168.5 12,-168.5 109.75,-168.5 109.75,-168.5 115.75,-168.5 121.75,-174.5 121.75,-180.5 121.75,-180.5 121.75,-192.5 121.75,-192.5 121.75,-198.5 115.75,-204.5 109.75,-204.5"/>
<text xml:space="preserve" text-anchor="middle" x="60.88" y="-181.45" font-family="Times New Roman,serif" font-size="14.00">AUDIO_STREAM</text>
</g>
<!-- SIMPLE_AUDIO -->
<g id="node4" class="node">
<title>SIMPLE_AUDIO</title>
<path fill="none" stroke="black" d="M106.38,-276.5C106.38,-276.5 15.38,-276.5 15.38,-276.5 9.38,-276.5 3.38,-270.5 3.38,-264.5 3.38,-264.5 3.38,-252.5 3.38,-252.5 3.38,-246.5 9.38,-240.5 15.38,-240.5 15.38,-240.5 106.38,-240.5 106.38,-240.5 112.38,-240.5 118.38,-246.5 118.38,-252.5 118.38,-252.5 118.38,-264.5 118.38,-264.5 118.38,-270.5 112.38,-276.5 106.38,-276.5"/>
<text xml:space="preserve" text-anchor="middle" x="60.88" y="-253.45" font-family="Times New Roman,serif" font-size="14.00">SIMPLE_AUDIO</text>
</g>
<!-- LIB_TESTS -->
<g id="node5" class="node">
<title>LIB_TESTS</title>
<path fill="none" stroke="black" d="M91,-348.5C91,-348.5 30.75,-348.5 30.75,-348.5 24.75,-348.5 18.75,-342.5 18.75,-336.5 18.75,-336.5 18.75,-324.5 18.75,-324.5 18.75,-318.5 24.75,-312.5 30.75,-312.5 30.75,-312.5 91,-312.5 91,-312.5 97,-312.5 103,-318.5 103,-324.5 103,-324.5 103,-336.5 103,-336.5 103,-342.5 97,-348.5 91,-348.5"/>
<text xml:space="preserve" text-anchor="middle" x="60.88" y="-325.45" font-family="Times New Roman,serif" font-size="14.00">LIB_TESTS</text>
</g>
<!-- TEST_SET_BASE -->
<g id="node6" class="node">
<title>TEST_SET_BASE</title>
<path fill="none" stroke="black" d="M338,-348.5C338,-348.5 241.75,-348.5 241.75,-348.5 235.75,-348.5 229.75,-342.5 229.75,-336.5 229.75,-336.5 229.75,-324.5 229.75,-324.5 229.75,-318.5 235.75,-312.5 241.75,-312.5 241.75,-312.5 338,-312.5 338,-312.5 344,-312.5 350,-318.5 350,-324.5 350,-324.5 350,-336.5 350,-336.5 350,-342.5 344,-348.5 338,-348.5"/>
<text xml:space="preserve" text-anchor="middle" x="289.88" y="-325.45" font-family="Times New Roman,serif" font-size="14.00">TEST_SET_BASE</text>
</g>
<!-- LIB_TESTS&#45;&gt;TEST_SET_BASE -->
<g id="edge1" class="edge">
<title>LIB_TESTS&#45;&gt;TEST_SET_BASE</title>
<path fill="none" stroke="black" d="M103.41,-330.5C103.41,-330.5 217.92,-330.5 217.92,-330.5"/>
<polygon fill="none" stroke="black" points="217.92,-334 227.92,-330.5 217.92,-327 217.92,-334"/>
</g>
<!-- TEST_APP -->
<g id="node7" class="node">
<title>TEST_APP</title>
<path fill="none" stroke="black" d="M88.75,-420.5C88.75,-420.5 33,-420.5 33,-420.5 27,-420.5 21,-414.5 21,-408.5 21,-408.5 21,-396.5 21,-396.5 21,-390.5 27,-384.5 33,-384.5 33,-384.5 88.75,-384.5 88.75,-384.5 94.75,-384.5 100.75,-390.5 100.75,-396.5 100.75,-396.5 100.75,-408.5 100.75,-408.5 100.75,-414.5 94.75,-420.5 88.75,-420.5"/>
<text xml:space="preserve" text-anchor="middle" x="60.88" y="-397.45" font-family="Times New Roman,serif" font-size="14.00">TEST_APP</text>
</g>
</g>
</svg>
