<?xml version="1.0" encoding="UTF-8" standalone="no"?>
<!DOCTYPE svg PUBLIC "-//W3C//DTD SVG 1.1//EN"
 "http://www.w3.org/Graphics/SVG/1.1/DTD/svg11.dtd">
<!-- Generated by graphviz version 14.1.1 (20251213.1925)
 -->
<!-- Title: ContractCoverage Pages: 1 -->
<svg width="816pt" height="905pt"
 viewBox="48.00 48.00 768.00 857.00" xmlns="http://www.w3.org/2000/svg" xmlns:xlink="http://www.w3.org/1999/xlink">
<g id="graph0" class="graph" transform="scale(0.548389 0.548389) rotate(0) translate(91.53 1558.15)">
<title>ContractCoverage</title>
<polygon fill="white" stroke="none" points="-4,4 -4,-1470.62 1308.94,-1470.62 1308.94,4 -4,4"/>
<text xml:space="preserve" text-anchor="middle" x="652.47" y="-1453.12" font-family="Times New Roman,serif" font-size="10.00">simple_audio &#45; Contract Coverage</text>
<g id="clust1" class="cluster">
<title>cluster_AUDIO_BUFFER</title>
<polygon fill="white" stroke="black" points="902.94,-737.88 902.94,-1170.38 1304.94,-1170.38 1304.94,-737.88 902.94,-737.88"/>
<text xml:space="preserve" text-anchor="middle" x="1103.94" y="-1153.08" font-family="Times New Roman,serif" font-size="14.00">AUDIO_BUFFER</text>
</g>
<g id="clust2" class="cluster">
<title>cluster_AUDIO_DEVICE</title>
<polygon fill="white" stroke="black" points="451.94,-860.88 451.94,-1227.38 823.94,-1227.38 823.94,-860.88 451.94,-860.88"/>
<text xml:space="preserve" text-anchor="middle" x="637.94" y="-1210.08" font-family="Times New Roman,serif" font-size="14.00">AUDIO_DEVICE</text>
</g>
<g id="clust3" class="cluster">
<title>cluster_AUDIO_STREAM</title>
<polygon fill="white" stroke="black" points="902.94,-204.88 902.94,-643.38 1298.94,-643.38 1298.94,-204.88 902.94,-204.88"/>
<text xml:space="preserve" text-anchor="middle" x="1100.94" y="-626.08" font-family="Times New Roman,serif" font-size="14.00">AUDIO_STREAM</text>
</g>
<g id="clust4" class="cluster">
<title>cluster_SIMPLE_AUDIO</title>
<polygon fill="white" stroke="black" points="328.5,-286.88 328.5,-761.38 803.38,-761.38 803.38,-286.88 328.5,-286.88"/>
<text xml:space="preserve" text-anchor="middle" x="565.94" y="-744.08" font-family="Times New Roman,serif" font-size="14.00">SIMPLE_AUDIO</text>
</g>
<g id="clust5" class="cluster">
<title>cluster_LIB_TESTS</title>
<polygon fill="white" stroke="black" points="0,-1106.88 0,-1447.37 373.87,-1447.37 373.87,-1106.88 0,-1106.88"/>
<text xml:space="preserve" text-anchor="middle" x="186.94" y="-1430.07" font-family="Times New Roman,serif" font-size="14.00">LIB_TESTS</text>
</g>
<g id="clust6" class="cluster">
<title>cluster_TEST_APP</title>
<polygon fill="white" stroke="black" points="41.44,-533.38 41.44,-758.88 260.44,-758.88 260.44,-533.38 41.44,-533.38"/>
<text xml:space="preserve" text-anchor="middle" x="150.94" y="-741.58" font-family="Times New Roman,serif" font-size="14.00">TEST_APP</text>
</g>
<g id="clust7" class="cluster">
<title>cluster_legend</title>
<polygon fill="lightyellow" stroke="black" points="574.56,0 574.56,-196.25 795.31,-196.25 795.31,0 574.56,0"/>
<text xml:space="preserve" text-anchor="middle" x="684.94" y="-182.75" font-family="Times New Roman,serif" font-size="10.00">Legend</text>
</g>
<!-- AUDIO_BUFFER_make -->
<g id="node1" class="node">
<title>AUDIO_BUFFER_make</title>
<polygon fill="palegreen" stroke="black" points="1274.94,-773.88 1220.94,-773.88 1220.94,-737.88 1274.94,-737.88 1274.94,-773.88"/>
<text xml:space="preserve" text-anchor="middle" x="1247.94" y="-752" font-family="Times New Roman,serif" font-size="10.00">make</text>
</g>
<!-- AUDIO_BUFFER_make_empty -->
<g id="node2" class="node">
<title>AUDIO_BUFFER_make_empty</title>
<polygon fill="lightcoral" stroke="black" points="1145.19,-833.88 1076.69,-833.88 1076.69,-797.88 1145.19,-797.88 1145.19,-833.88"/>
<text xml:space="preserve" text-anchor="middle" x="1110.94" y="-812" font-family="Times New Roman,serif" font-size="10.00">make_empty</text>
</g>
<!-- AUDIO_BUFFER_make_from_wav -->
<g id="node3" class="node">
<title>AUDIO_BUFFER_make_from_wav</title>
<polygon fill="palegreen" stroke="black" points="1185.06,-995.88 1100.81,-995.88 1100.81,-959.88 1185.06,-959.88 1185.06,-995.88"/>
<text xml:space="preserve" text-anchor="middle" x="1142.94" y="-974" font-family="Times New Roman,serif" font-size="10.00">make_from_wav</text>
</g>
<!-- AUDIO_BUFFER_frame_count -->
<g id="node4" class="node">
<title>AUDIO_BUFFER_frame_count</title>
<polygon fill="lightgray" stroke="black" points="1047.44,-1085.88 980.44,-1085.88 980.44,-1049.88 1047.44,-1049.88 1047.44,-1085.88"/>
<text xml:space="preserve" text-anchor="middle" x="1013.94" y="-1064" font-family="Times New Roman,serif" font-size="10.00">frame_count</text>
</g>
<!-- AUDIO_BUFFER_channels -->
<g id="node5" class="node">
<title>AUDIO_BUFFER_channels</title>
<polygon fill="lightgray" stroke="black" points="1292.94,-893.88 1238.94,-893.88 1238.94,-857.88 1292.94,-857.88 1292.94,-893.88"/>
<text xml:space="preserve" text-anchor="middle" x="1265.94" y="-872" font-family="Times New Roman,serif" font-size="10.00">channels</text>
</g>
<!-- AUDIO_BUFFER_bits_per_sample -->
<g id="node6" class="node">
<title>AUDIO_BUFFER_bits_per_sample</title>
<polygon fill="lightgray" stroke="black" points="1081.31,-1025.88 998.56,-1025.88 998.56,-989.88 1081.31,-989.88 1081.31,-1025.88"/>
<text xml:space="preserve" text-anchor="middle" x="1039.94" y="-1004" font-family="Times New Roman,serif" font-size="10.00">bits_per_sample</text>
</g>
<!-- AUDIO_BUFFER_bytes_per_sample -->
<g id="node7" class="node">
<title>AUDIO_BUFFER_bytes_per_sample</title>
<polygon fill="lightgray" stroke="black" points="1105.69,-935.88 1016.19,-935.88 1016.19,-899.88 1105.69,-899.88 1105.69,-935.88"/>
<text xml:space="preserve" text-anchor="middle" x="1060.94" y="-914" font-family="Times New Roman,serif" font-size="10.00">bytes_per_sample</text>
</g>
<!-- AUDIO_BUFFER_bytes_per_frame -->
<g id="node8" class="node">
<title>AUDIO_BUFFER_bytes_per_frame</title>
<polygon fill="lightgray" stroke="black" points="1213.69,-893.88 1130.19,-893.88 1130.19,-857.88 1213.69,-857.88 1213.69,-893.88"/>
<text xml:space="preserve" text-anchor="middle" x="1171.94" y="-872" font-family="Times New Roman,serif" font-size="10.00">bytes_per_frame</text>
</g>
<!-- AUDIO_BUFFER_sample_rate -->
<g id="node9" class="node">
<title>AUDIO_BUFFER_sample_rate</title>
<polygon fill="lightgray" stroke="black" points="1231.31,-833.88 1166.56,-833.88 1166.56,-797.88 1231.31,-797.88 1231.31,-833.88"/>
<text xml:space="preserve" text-anchor="middle" x="1198.94" y="-812" font-family="Times New Roman,serif" font-size="10.00">sample_rate</text>
</g>
<!-- AUDIO_BUFFER_data -->
<g id="node10" class="node">
<title>AUDIO_BUFFER_data</title>
<polygon fill="lightgray" stroke="black" points="956.94,-905.88 902.94,-905.88 902.94,-869.88 956.94,-869.88 956.94,-905.88"/>
<text xml:space="preserve" text-anchor="middle" x="929.94" y="-884" font-family="Times New Roman,serif" font-size="10.00">data</text>
</g>
<!-- AUDIO_BUFFER_is_valid -->
<g id="node11" class="node">
<title>AUDIO_BUFFER_is_valid</title>
<polygon fill="lightgray" stroke="black" points="1118.94,-773.88 1064.94,-773.88 1064.94,-737.88 1118.94,-737.88 1118.94,-773.88"/>
<text xml:space="preserve" text-anchor="middle" x="1091.94" y="-752" font-family="Times New Roman,serif" font-size="10.00">is_valid</text>
</g>
<!-- AUDIO_BUFFER_last_error -->
<g id="node12" class="node">
<title>AUDIO_BUFFER_last_error</title>
<polygon fill="lightgray" stroke="black" points="1275.06,-1115.88 1220.81,-1115.88 1220.81,-1079.88 1275.06,-1079.88 1275.06,-1115.88"/>
<text xml:space="preserve" text-anchor="middle" x="1247.94" y="-1094" font-family="Times New Roman,serif" font-size="10.00">last_error</text>
</g>
<!-- AUDIO_BUFFER_byte_count -->
<g id="node13" class="node">
<title>AUDIO_BUFFER_byte_count</title>
<polygon fill="khaki" stroke="black" points="983.19,-815.88 920.69,-815.88 920.69,-779.88 983.19,-779.88 983.19,-815.88"/>
<text xml:space="preserve" text-anchor="middle" x="951.94" y="-794" font-family="Times New Roman,serif" font-size="10.00">byte_count</text>
</g>
<!-- AUDIO_BUFFER_duration -->
<g id="node14" class="node">
<title>AUDIO_BUFFER_duration</title>
<polygon fill="palegreen" stroke="black" points="1196.94,-773.88 1142.94,-773.88 1142.94,-737.88 1196.94,-737.88 1196.94,-773.88"/>
<text xml:space="preserve" text-anchor="middle" x="1169.94" y="-752" font-family="Times New Roman,serif" font-size="10.00">duration</text>
</g>
<!-- AUDIO_BUFFER_sample_at -->
<g id="node15" class="node">
<title>AUDIO_BUFFER_sample_at</title>
<polygon fill="palegreen" stroke="black" points="977.56,-1025.88 920.31,-1025.88 920.31,-989.88 977.56,-989.88 977.56,-1025.88"/>
<text xml:space="preserve" text-anchor="middle" x="948.94" y="-1004" font-family="Times New Roman,serif" font-size="10.00">sample_at</text>
</g>
<!-- AUDIO_BUFFER_set_sample -->
<g id="node16" class="node">
<title>AUDIO_BUFFER_set_sample</title>
<polygon fill="khaki" stroke="black" points="1269.44,-953.88 1208.44,-953.88 1208.44,-917.88 1269.44,-917.88 1269.44,-953.88"/>
<text xml:space="preserve" text-anchor="middle" x="1238.94" y="-932" font-family="Times New Roman,serif" font-size="10.00">set_sample</text>
</g>
<!-- AUDIO_BUFFER_clear -->
<g id="node17" class="node">
<title>AUDIO_BUFFER_clear</title>
<polygon fill="lightcoral" stroke="black" points="956.94,-1121.88 902.94,-1121.88 902.94,-1085.88 956.94,-1085.88 956.94,-1121.88"/>
<text xml:space="preserve" text-anchor="middle" x="929.94" y="-1100" font-family="Times New Roman,serif" font-size="10.00">clear</text>
</g>
<!-- AUDIO_BUFFER_save_to_wav -->
<g id="node18" class="node">
<title>AUDIO_BUFFER_save_to_wav</title>
<polygon fill="khaki" stroke="black" points="1140.94,-1085.88 1070.94,-1085.88 1070.94,-1049.88 1140.94,-1049.88 1140.94,-1085.88"/>
<text xml:space="preserve" text-anchor="middle" x="1105.94" y="-1064" font-family="Times New Roman,serif" font-size="10.00">save_to_wav</text>
</g>
<!-- AUDIO_BUFFER_fill_sine_wave -->
<g id="node19" class="node">
<title>AUDIO_BUFFER_fill_sine_wave</title>
<polygon fill="khaki" stroke="black" points="1057.31,-875.88 980.56,-875.88 980.56,-839.88 1057.31,-839.88 1057.31,-875.88"/>
<text xml:space="preserve" text-anchor="middle" x="1018.94" y="-854" font-family="Times New Roman,serif" font-size="10.00">fill_sine_wave</text>
</g>
<!-- AUDIO_BUFFER_fill_silence -->
<g id="node20" class="node">
<title>AUDIO_BUFFER_fill_silence</title>
<polygon fill="lightcoral" stroke="black" points="993.81,-965.88 932.06,-965.88 932.06,-929.88 993.81,-929.88 993.81,-965.88"/>
<text xml:space="preserve" text-anchor="middle" x="962.94" y="-944" font-family="Times New Roman,serif" font-size="10.00">fill_silence</text>
</g>
<!-- AUDIO_BUFFER_read_four_chars -->
<g id="node21" class="node">
<title>AUDIO_BUFFER_read_four_chars</title>
<polygon fill="palegreen" stroke="black" points="1241.56,-1055.88 1160.31,-1055.88 1160.31,-1019.88 1241.56,-1019.88 1241.56,-1055.88"/>
<text xml:space="preserve" text-anchor="middle" x="1200.94" y="-1034" font-family="Times New Roman,serif" font-size="10.00">read_four_chars</text>
</g>
<!-- AUDIO_BUFFER_Pi -->
<g id="node22" class="node">
<title>AUDIO_BUFFER_Pi</title>
<polygon fill="lightgray" stroke="black" points="1304.94,-833.88 1250.94,-833.88 1250.94,-797.88 1304.94,-797.88 1304.94,-833.88"/>
<text xml:space="preserve" text-anchor="middle" x="1277.94" y="-812" font-family="Times New Roman,serif" font-size="10.00">Pi</text>
</g>
<!-- AUDIO_BUFFER_sine -->
<g id="node23" class="node">
<title>AUDIO_BUFFER_sine</title>
<polygon fill="lightcoral" stroke="black" points="1196.94,-1145.88 1142.94,-1145.88 1142.94,-1109.88 1196.94,-1109.88 1196.94,-1145.88"/>
<text xml:space="preserve" text-anchor="middle" x="1169.94" y="-1124" font-family="Times New Roman,serif" font-size="10.00">sine</text>
</g>
<!-- AUDIO_DEVICE_make_from_handle -->
<g id="node24" class="node">
<title>AUDIO_DEVICE_make_from_handle</title>
<polygon fill="palegreen" stroke="black" points="744.31,-1076.88 649.56,-1076.88 649.56,-1040.88 744.31,-1040.88 744.31,-1076.88"/>
<text xml:space="preserve" text-anchor="middle" x="696.94" y="-1055" font-family="Times New Roman,serif" font-size="10.00">make_from_handle</text>
</g>
<!-- AUDIO_DEVICE_make_empty -->
<g id="node25" class="node">
<title>AUDIO_DEVICE_make_empty</title>
<polygon fill="lightcoral" stroke="black" points="688.19,-1166.88 619.69,-1166.88 619.69,-1130.88 688.19,-1130.88 688.19,-1166.88"/>
<text xml:space="preserve" text-anchor="middle" x="653.94" y="-1145" font-family="Times New Roman,serif" font-size="10.00">make_empty</text>
</g>
<!-- AUDIO_DEVICE_name -->
<g id="node26" class="node">
<title>AUDIO_DEVICE_name</title>
<polygon fill="khaki" stroke="black" points="817.94,-1022.88 763.94,-1022.88 763.94,-986.88 817.94,-986.88 817.94,-1022.88"/>
<text xml:space="preserve" text-anchor="middle" x="790.94" y="-1001" font-family="Times New Roman,serif" font-size="10.00">name</text>
</g>
<!-- AUDIO_DEVICE_id -->
<g id="node27" class="node">
<title>AUDIO_DEVICE_id</title>
<polygon fill="khaki" stroke="black" points="601.94,-896.88 547.94,-896.88 547.94,-860.88 601.94,-860.88 601.94,-896.88"/>
<text xml:space="preserve" text-anchor="middle" x="574.94" y="-875" font-family="Times New Roman,serif" font-size="10.00">id</text>
</g>
<!-- AUDIO_DEVICE_handle -->
<g id="node28" class="node">
<title>AUDIO_DEVICE_handle</title>
<polygon fill="lightgray" stroke="black" points="523.94,-896.88 469.94,-896.88 469.94,-860.88 523.94,-860.88 523.94,-896.88"/>
<text xml:space="preserve" text-anchor="middle" x="496.94" y="-875" font-family="Times New Roman,serif" font-size="10.00">handle</text>
</g>
<!-- AUDIO_DEVICE_is_output -->
<g id="node29" class="node">
<title>AUDIO_DEVICE_is_output</title>
<polygon fill="lightgray" stroke="black" points="764.44,-902.88 709.44,-902.88 709.44,-866.88 764.44,-866.88 764.44,-902.88"/>
<text xml:space="preserve" text-anchor="middle" x="736.94" y="-881" font-family="Times New Roman,serif" font-size="10.00">is_output</text>
</g>
<!-- AUDIO_DEVICE_is_input -->
<g id="node30" class="node">
<title>AUDIO_DEVICE_is_input</title>
<polygon fill="khaki" stroke="black" points="523.94,-1106.88 469.94,-1106.88 469.94,-1070.88 523.94,-1070.88 523.94,-1106.88"/>
<text xml:space="preserve" text-anchor="middle" x="496.94" y="-1085" font-family="Times New Roman,serif" font-size="10.00">is_input</text>
</g>
<!-- AUDIO_DEVICE_is_valid -->
<g id="node31" class="node">
<title>AUDIO_DEVICE_is_valid</title>
<polygon fill="lightcoral" stroke="black" points="523.94,-1046.87 469.94,-1046.87 469.94,-1010.87 523.94,-1010.87 523.94,-1046.87"/>
<text xml:space="preserve" text-anchor="middle" x="496.94" y="-1025" font-family="Times New Roman,serif" font-size="10.00">is_valid</text>
</g>
<!-- AUDIO_DEVICE_same_device -->
<g id="node32" class="node">
<title>AUDIO_DEVICE_same_device</title>
<polygon fill="khaki" stroke="black" points="598.19,-1166.88 529.69,-1166.88 529.69,-1130.88 598.19,-1130.88 598.19,-1166.88"/>
<text xml:space="preserve" text-anchor="middle" x="563.94" y="-1145" font-family="Times New Roman,serif" font-size="10.00">same_device</text>
</g>
<!-- AUDIO_DEVICE_display_name -->
<g id="node33" class="node">
<title>AUDIO_DEVICE_display_name</title>
<polygon fill="khaki" stroke="black" points="602.44,-956.87 529.44,-956.87 529.44,-920.87 602.44,-920.87 602.44,-956.87"/>
<text xml:space="preserve" text-anchor="middle" x="565.94" y="-935" font-family="Times New Roman,serif" font-size="10.00">display_name</text>
</g>
<!-- AUDIO_DEVICE_internal_name -->
<g id="node34" class="node">
<title>AUDIO_DEVICE_internal_name</title>
<polygon fill="lightgray" stroke="black" points="766.19,-962.87 691.69,-962.87 691.69,-926.87 766.19,-926.87 766.19,-962.87"/>
<text xml:space="preserve" text-anchor="middle" x="728.94" y="-941" font-family="Times New Roman,serif" font-size="10.00">internal_name</text>
</g>
<!-- AUDIO_DEVICE_internal_id -->
<g id="node35" class="node">
<title>AUDIO_DEVICE_internal_id</title>
<polygon fill="lightgray" stroke="black" points="686.44,-902.88 625.44,-902.88 625.44,-866.88 686.44,-866.88 686.44,-902.88"/>
<text xml:space="preserve" text-anchor="middle" x="655.94" y="-881" font-family="Times New Roman,serif" font-size="10.00">internal_id</text>
</g>
<!-- AUDIO_DEVICE_fetch_properties -->
<g id="node36" class="node">
<title>AUDIO_DEVICE_fetch_properties</title>
<polygon fill="lightcoral" stroke="black" points="629.94,-1106.88 547.94,-1106.88 547.94,-1070.88 629.94,-1070.88 629.94,-1106.88"/>
<text xml:space="preserve" text-anchor="middle" x="588.94" y="-1085" font-family="Times New Roman,serif" font-size="10.00">fetch_properties</text>
</g>
<!-- AUDIO_DEVICE_wide_string_to_string_32 -->
<g id="node37" class="node">
<title>AUDIO_DEVICE_wide_string_to_string_32</title>
<polygon fill="lightcoral" stroke="black" points="670.19,-1016.87 547.69,-1016.87 547.69,-980.87 670.19,-980.87 670.19,-1016.87"/>
<text xml:space="preserve" text-anchor="middle" x="608.94" y="-995" font-family="Times New Roman,serif" font-size="10.00">wide_string_to_string_32</text>
</g>
<!-- AUDIO_DEVICE_c_get_name -->
<g id="node38" class="node">
<title>AUDIO_DEVICE_c_get_name</title>
<polygon fill="lightcoral" stroke="black" points="774.69,-1136.87 709.19,-1136.87 709.19,-1100.87 774.69,-1100.87 774.69,-1136.87"/>
<text xml:space="preserve" text-anchor="middle" x="741.94" y="-1115" font-family="Times New Roman,serif" font-size="10.00">c_get_name</text>
</g>
<!-- AUDIO_DEVICE_c_get_id -->
<g id="node39" class="node">
<title>AUDIO_DEVICE_c_get_id</title>
<polygon fill="lightcoral" stroke="black" points="823.94,-1196.88 769.94,-1196.88 769.94,-1160.88 823.94,-1160.88 823.94,-1196.88"/>
<text xml:space="preserve" text-anchor="middle" x="796.94" y="-1175" font-family="Times New Roman,serif" font-size="10.00">c_get_id</text>
</g>
<!-- AUDIO_DEVICE_c_release -->
<g id="node40" class="node">
<title>AUDIO_DEVICE_c_release</title>
<polygon fill="lightcoral" stroke="black" points="505.94,-1202.88 451.94,-1202.88 451.94,-1166.88 505.94,-1166.88 505.94,-1202.88"/>
<text xml:space="preserve" text-anchor="middle" x="478.94" y="-1181" font-family="Times New Roman,serif" font-size="10.00">c_release</text>
</g>
<!-- AUDIO_STREAM_make_from_handle -->
<g id="node41" class="node">
<title>AUDIO_STREAM_make_from_handle</title>
<polygon fill="palegreen" stroke="black" points="1195.31,-468.88 1100.56,-468.88 1100.56,-432.88 1195.31,-432.88 1195.31,-468.88"/>
<text xml:space="preserve" text-anchor="middle" x="1147.94" y="-447" font-family="Times New Roman,serif" font-size="10.00">make_from_handle</text>
</g>
<!-- AUDIO_STREAM_handle -->
<g id="node42" class="node">
<title>AUDIO_STREAM_handle</title>
<polygon fill="lightgray" stroke="black" points="1118.94,-618.88 1064.94,-618.88 1064.94,-582.88 1118.94,-582.88 1118.94,-618.88"/>
<text xml:space="preserve" text-anchor="middle" x="1091.94" y="-597" font-family="Times New Roman,serif" font-size="10.00">handle</text>
</g>
<!-- AUDIO_STREAM_sample_rate -->
<g id="node43" class="node">
<title>AUDIO_STREAM_sample_rate</title>
<polygon fill="lightgray" stroke="black" points="1141.31,-558.88 1076.56,-558.88 1076.56,-522.88 1141.31,-522.88 1141.31,-558.88"/>
<text xml:space="preserve" text-anchor="middle" x="1108.94" y="-537" font-family="Times New Roman,serif" font-size="10.00">sample_rate</text>
</g>
<!-- AUDIO_STREAM_channels -->
<g id="node44" class="node">
<title>AUDIO_STREAM_channels</title>
<polygon fill="lightgray" stroke="black" points="1130.94,-240.88 1076.94,-240.88 1076.94,-204.88 1130.94,-204.88 1130.94,-240.88"/>
<text xml:space="preserve" text-anchor="middle" x="1103.94" y="-219" font-family="Times New Roman,serif" font-size="10.00">channels</text>
</g>
<!-- AUDIO_STREAM_bits_per_sample -->
<g id="node45" class="node">
<title>AUDIO_STREAM_bits_per_sample</title>
<polygon fill="lightgray" stroke="black" points="1081.31,-498.88 998.56,-498.88 998.56,-462.88 1081.31,-462.88 1081.31,-498.88"/>
<text xml:space="preserve" text-anchor="middle" x="1039.94" y="-477" font-family="Times New Roman,serif" font-size="10.00">bits_per_sample</text>
</g>
<!-- AUDIO_STREAM_bytes_per_frame -->
<g id="node46" class="node">
<title>AUDIO_STREAM_bytes_per_frame</title>
<polygon fill="lightgray" stroke="black" points="1063.69,-348.88 980.19,-348.88 980.19,-312.88 1063.69,-312.88 1063.69,-348.88"/>
<text xml:space="preserve" text-anchor="middle" x="1021.94" y="-327" font-family="Times New Roman,serif" font-size="10.00">bytes_per_frame</text>
</g>
<!-- AUDIO_STREAM_buffer_size -->
<g id="node47" class="node">
<title>AUDIO_STREAM_buffer_size</title>
<polygon fill="lightgray" stroke="black" points="1053.44,-558.88 992.44,-558.88 992.44,-522.88 1053.44,-522.88 1053.44,-558.88"/>
<text xml:space="preserve" text-anchor="middle" x="1022.94" y="-537" font-family="Times New Roman,serif" font-size="10.00">buffer_size</text>
</g>
<!-- AUDIO_STREAM_is_output -->
<g id="node48" class="node">
<title>AUDIO_STREAM_is_output</title>
<polygon fill="lightgray" stroke="black" points="981.44,-438.88 926.44,-438.88 926.44,-402.88 981.44,-402.88 981.44,-438.88"/>
<text xml:space="preserve" text-anchor="middle" x="953.94" y="-417" font-family="Times New Roman,serif" font-size="10.00">is_output</text>
</g>
<!-- AUDIO_STREAM_is_input -->
<g id="node49" class="node">
<title>AUDIO_STREAM_is_input</title>
<polygon fill="khaki" stroke="black" points="974.94,-498.88 920.94,-498.88 920.94,-462.88 974.94,-462.88 974.94,-498.88"/>
<text xml:space="preserve" text-anchor="middle" x="947.94" y="-477" font-family="Times New Roman,serif" font-size="10.00">is_input</text>
</g>
<!-- AUDIO_STREAM_is_started -->
<g id="node50" class="node">
<title>AUDIO_STREAM_is_started</title>
<polygon fill="lightgray" stroke="black" points="1143.44,-300.88 1088.44,-300.88 1088.44,-264.88 1143.44,-264.88 1143.44,-300.88"/>
<text xml:space="preserve" text-anchor="middle" x="1115.94" y="-279" font-family="Times New Roman,serif" font-size="10.00">is_started</text>
</g>
<!-- AUDIO_STREAM_is_valid -->
<g id="node51" class="node">
<title>AUDIO_STREAM_is_valid</title>
<polygon fill="lightcoral" stroke="black" points="1220.94,-300.88 1166.94,-300.88 1166.94,-264.88 1220.94,-264.88 1220.94,-300.88"/>
<text xml:space="preserve" text-anchor="middle" x="1193.94" y="-279" font-family="Times New Roman,serif" font-size="10.00">is_valid</text>
</g>
<!-- AUDIO_STREAM_available_frames -->
<g id="node52" class="node">
<title>AUDIO_STREAM_available_frames</title>
<polygon fill="palegreen" stroke="black" points="1245.44,-528.88 1160.44,-528.88 1160.44,-492.88 1245.44,-492.88 1245.44,-528.88"/>
<text xml:space="preserve" text-anchor="middle" x="1202.94" y="-507" font-family="Times New Roman,serif" font-size="10.00">available_frames</text>
</g>
<!-- AUDIO_STREAM_start -->
<g id="node53" class="node">
<title>AUDIO_STREAM_start</title>
<polygon fill="khaki" stroke="black" points="974.94,-288.88 920.94,-288.88 920.94,-252.88 974.94,-252.88 974.94,-288.88"/>
<text xml:space="preserve" text-anchor="middle" x="947.94" y="-267" font-family="Times New Roman,serif" font-size="10.00">start</text>
</g>
<!-- AUDIO_STREAM_stop -->
<g id="node54" class="node">
<title>AUDIO_STREAM_stop</title>
<polygon fill="khaki" stroke="black" points="1052.94,-288.88 998.94,-288.88 998.94,-252.88 1052.94,-252.88 1052.94,-288.88"/>
<text xml:space="preserve" text-anchor="middle" x="1025.94" y="-267" font-family="Times New Roman,serif" font-size="10.00">stop</text>
</g>
<!-- AUDIO_STREAM_write -->
<g id="node55" class="node">
<title>AUDIO_STREAM_write</title>
<polygon fill="palegreen" stroke="black" points="1268.94,-420.88 1214.94,-420.88 1214.94,-384.88 1268.94,-384.88 1268.94,-420.88"/>
<text xml:space="preserve" text-anchor="middle" x="1241.94" y="-399" font-family="Times New Roman,serif" font-size="10.00">write</text>
</g>
<!-- AUDIO_STREAM_read -->
<g id="node56" class="node">
<title>AUDIO_STREAM_read</title>
<polygon fill="palegreen" stroke="black" points="968.94,-582.88 914.94,-582.88 914.94,-546.88 968.94,-546.88 968.94,-582.88"/>
<text xml:space="preserve" text-anchor="middle" x="941.94" y="-561" font-family="Times New Roman,serif" font-size="10.00">read</text>
</g>
<!-- AUDIO_STREAM_close -->
<g id="node57" class="node">
<title>AUDIO_STREAM_close</title>
<polygon fill="khaki" stroke="black" points="1274.94,-588.88 1220.94,-588.88 1220.94,-552.88 1274.94,-552.88 1274.94,-588.88"/>
<text xml:space="preserve" text-anchor="middle" x="1247.94" y="-567" font-family="Times New Roman,serif" font-size="10.00">close</text>
</g>
<!-- AUDIO_STREAM_c_start -->
<g id="node58" class="node">
<title>AUDIO_STREAM_c_start</title>
<polygon fill="lightcoral" stroke="black" points="956.94,-378.88 902.94,-378.88 902.94,-342.88 956.94,-342.88 956.94,-378.88"/>
<text xml:space="preserve" text-anchor="middle" x="929.94" y="-357" font-family="Times New Roman,serif" font-size="10.00">c_start</text>
</g>
<!-- AUDIO_STREAM_c_stop -->
<g id="node59" class="node">
<title>AUDIO_STREAM_c_stop</title>
<polygon fill="lightcoral" stroke="black" points="1298.94,-252.88 1244.94,-252.88 1244.94,-216.88 1298.94,-216.88 1298.94,-252.88"/>
<text xml:space="preserve" text-anchor="middle" x="1271.94" y="-231" font-family="Times New Roman,serif" font-size="10.00">c_stop</text>
</g>
<!-- AUDIO_STREAM_c_write -->
<g id="node60" class="node">
<title>AUDIO_STREAM_c_write</title>
<polygon fill="lightcoral" stroke="black" points="1298.94,-312.88 1244.94,-312.88 1244.94,-276.88 1298.94,-276.88 1298.94,-312.88"/>
<text xml:space="preserve" text-anchor="middle" x="1271.94" y="-291" font-family="Times New Roman,serif" font-size="10.00">c_write</text>
</g>
<!-- AUDIO_STREAM_c_read -->
<g id="node61" class="node">
<title>AUDIO_STREAM_c_read</title>
<polygon fill="lightcoral" stroke="black" points="1196.94,-618.88 1142.94,-618.88 1142.94,-582.88 1196.94,-582.88 1196.94,-618.88"/>
<text xml:space="preserve" text-anchor="middle" x="1169.94" y="-597" font-family="Times New Roman,serif" font-size="10.00">c_read</text>
</g>
<!-- AUDIO_STREAM_c_get_available_frames -->
<g id="node62" class="node">
<title>AUDIO_STREAM_c_get_available_frames</title>
<polygon fill="lightcoral" stroke="black" points="1117.31,-408.88 1004.56,-408.88 1004.56,-372.88 1117.31,-372.88 1117.31,-408.88"/>
<text xml:space="preserve" text-anchor="middle" x="1060.94" y="-387" font-family="Times New Roman,serif" font-size="10.00">c_get_available_frames</text>
</g>
<!-- AUDIO_STREAM_c_get_buffer_size -->
<g id="node63" class="node">
<title>AUDIO_STREAM_c_get_buffer_size</title>
<polygon fill="lightcoral" stroke="black" points="1225.31,-360.88 1136.56,-360.88 1136.56,-324.88 1225.31,-324.88 1225.31,-360.88"/>
<text xml:space="preserve" text-anchor="middle" x="1180.94" y="-339" font-family="Times New Roman,serif" font-size="10.00">c_get_buffer_size</text>
</g>
<!-- AUDIO_STREAM_c_destroy -->
<g id="node64" class="node">
<title>AUDIO_STREAM_c_destroy</title>
<polygon fill="lightcoral" stroke="black" points="1209.81,-240.88 1154.06,-240.88 1154.06,-204.88 1209.81,-204.88 1209.81,-240.88"/>
<text xml:space="preserve" text-anchor="middle" x="1181.94" y="-219" font-family="Times New Roman,serif" font-size="10.00">c_destroy</text>
</g>
<!-- SIMPLE_AUDIO_make -->
<g id="node65" class="node">
<title>SIMPLE_AUDIO_make</title>
<polygon fill="khaki" stroke="black" points="508.5,-736.88 454.5,-736.88 454.5,-700.88 508.5,-700.88 508.5,-736.88"/>
<text xml:space="preserve" text-anchor="middle" x="481.5" y="-715" font-family="Times New Roman,serif" font-size="10.00">make</text>
</g>
<!-- SIMPLE_AUDIO_output_devices -->
<g id="node66" class="node">
<title>SIMPLE_AUDIO_output_devices</title>
<polygon fill="khaki" stroke="black" points="773,-364.88 694,-364.88 694,-328.88 773,-328.88 773,-364.88"/>
<text xml:space="preserve" text-anchor="middle" x="733.5" y="-343" font-family="Times New Roman,serif" font-size="10.00">output_devices</text>
</g>
<!-- SIMPLE_AUDIO_input_devices -->
<g id="node67" class="node">
<title>SIMPLE_AUDIO_input_devices</title>
<polygon fill="khaki" stroke="black" points="773.38,-508.88 699.62,-508.88 699.62,-472.88 773.38,-472.88 773.38,-508.88"/>
<text xml:space="preserve" text-anchor="middle" x="736.5" y="-487" font-family="Times New Roman,serif" font-size="10.00">input_devices</text>
</g>
<!-- SIMPLE_AUDIO_default_output -->
<g id="node68" class="node">
<title>SIMPLE_AUDIO_default_output</title>
<polygon fill="lightcoral" stroke="black" points="506.88,-676.88 430.12,-676.88 430.12,-640.88 506.88,-640.88 506.88,-676.88"/>
<text xml:space="preserve" text-anchor="middle" x="468.5" y="-655" font-family="Times New Roman,serif" font-size="10.00">default_output</text>
</g>
<!-- SIMPLE_AUDIO_default_input -->
<g id="node69" class="node">
<title>SIMPLE_AUDIO_default_input</title>
<polygon fill="lightcoral" stroke="black" points="423.25,-496.88 351.75,-496.88 351.75,-460.88 423.25,-460.88 423.25,-496.88"/>
<text xml:space="preserve" text-anchor="middle" x="387.5" y="-475" font-family="Times New Roman,serif" font-size="10.00">default_input</text>
</g>
<!-- SIMPLE_AUDIO_output_device_count -->
<g id="node70" class="node">
<title>SIMPLE_AUDIO_output_device_count</title>
<polygon fill="lightcoral" stroke="black" points="713.38,-448.88 609.62,-448.88 609.62,-412.88 713.38,-412.88 713.38,-448.88"/>
<text xml:space="preserve" text-anchor="middle" x="661.5" y="-427" font-family="Times New Roman,serif" font-size="10.00">output_device_count</text>
</g>
<!-- SIMPLE_AUDIO_input_device_count -->
<g id="node71" class="node">
<title>SIMPLE_AUDIO_input_device_count</title>
<polygon fill="lightcoral" stroke="black" points="672.75,-388.88 574.25,-388.88 574.25,-352.88 672.75,-352.88 672.75,-388.88"/>
<text xml:space="preserve" text-anchor="middle" x="623.5" y="-367" font-family="Times New Roman,serif" font-size="10.00">input_device_count</text>
</g>
<!-- SIMPLE_AUDIO_is_initialized -->
<g id="node72" class="node">
<title>SIMPLE_AUDIO_is_initialized</title>
<polygon fill="lightcoral" stroke="black" points="602.5,-328.88 532.5,-328.88 532.5,-292.88 602.5,-292.88 602.5,-328.88"/>
<text xml:space="preserve" text-anchor="middle" x="567.5" y="-307" font-family="Times New Roman,serif" font-size="10.00">is_initialized</text>
</g>
<!-- SIMPLE_AUDIO_refresh -->
<g id="node73" class="node">
<title>SIMPLE_AUDIO_refresh</title>
<polygon fill="lightcoral" stroke="black" points="664.5,-736.88 610.5,-736.88 610.5,-700.88 664.5,-700.88 664.5,-736.88"/>
<text xml:space="preserve" text-anchor="middle" x="637.5" y="-715" font-family="Times New Roman,serif" font-size="10.00">refresh</text>
</g>
<!-- SIMPLE_AUDIO_create_output_stream -->
<g id="node74" class="node">
<title>SIMPLE_AUDIO_create_output_stream</title>
<polygon fill="khaki" stroke="black" points="551.38,-442.88 447.62,-442.88 447.62,-406.88 551.38,-406.88 551.38,-442.88"/>
<text xml:space="preserve" text-anchor="middle" x="499.5" y="-421" font-family="Times New Roman,serif" font-size="10.00">create_output_stream</text>
</g>
<!-- SIMPLE_AUDIO_create_input_stream -->
<g id="node75" class="node">
<title>SIMPLE_AUDIO_create_input_stream</title>
<polygon fill="khaki" stroke="black" points="726.75,-622.88 628.25,-622.88 628.25,-586.88 726.75,-586.88 726.75,-622.88"/>
<text xml:space="preserve" text-anchor="middle" x="677.5" y="-601" font-family="Times New Roman,serif" font-size="10.00">create_input_stream</text>
</g>
<!-- SIMPLE_AUDIO_dispose -->
<g id="node76" class="node">
<title>SIMPLE_AUDIO_dispose</title>
<polygon fill="lightcoral" stroke="black" points="586.5,-736.88 532.5,-736.88 532.5,-700.88 586.5,-700.88 586.5,-736.88"/>
<text xml:space="preserve" text-anchor="middle" x="559.5" y="-715" font-family="Times New Roman,serif" font-size="10.00">dispose</text>
</g>
<!-- SIMPLE_AUDIO_internal_output_devices -->
<g id="node77" class="node">
<title>SIMPLE_AUDIO_internal_output_devices</title>
<polygon fill="lightgray" stroke="black" points="587.38,-502.88 471.62,-502.88 471.62,-466.88 587.38,-466.88 587.38,-502.88"/>
<text xml:space="preserve" text-anchor="middle" x="529.5" y="-481" font-family="Times New Roman,serif" font-size="10.00">internal_output_devices</text>
</g>
<!-- SIMPLE_AUDIO_internal_input_devices -->
<g id="node78" class="node">
<title>SIMPLE_AUDIO_internal_input_devices</title>
<polygon fill="lightgray" stroke="black" points="678.75,-562.88 568.25,-562.88 568.25,-526.88 678.75,-526.88 678.75,-562.88"/>
<text xml:space="preserve" text-anchor="middle" x="623.5" y="-541" font-family="Times New Roman,serif" font-size="10.00">internal_input_devices</text>
</g>
<!-- SIMPLE_AUDIO_Flow_render -->
<g id="node79" class="node">
<title>SIMPLE_AUDIO_Flow_render</title>
<polygon fill="lightgray" stroke="black" points="803.38,-424.88 735.62,-424.88 735.62,-388.88 803.38,-388.88 803.38,-424.88"/>
<text xml:space="preserve" text-anchor="middle" x="769.5" y="-403" font-family="Times New Roman,serif" font-size="10.00">Flow_render</text>
</g>
<!-- SIMPLE_AUDIO_Flow_capture -->
<g id="node80" class="node">
<title>SIMPLE_AUDIO_Flow_capture</title>
<polygon fill="lightgray" stroke="black" points="418.62,-616.88 346.38,-616.88 346.38,-580.88 418.62,-580.88 418.62,-616.88"/>
<text xml:space="preserve" text-anchor="middle" x="382.5" y="-595" font-family="Times New Roman,serif" font-size="10.00">Flow_capture</text>
</g>
<!-- SIMPLE_AUDIO_initialize_wasapi -->
<g id="node81" class="node">
<title>SIMPLE_AUDIO_initialize_wasapi</title>
<polygon fill="lightcoral" stroke="black" points="474.75,-382.88 388.25,-382.88 388.25,-346.88 474.75,-346.88 474.75,-382.88"/>
<text xml:space="preserve" text-anchor="middle" x="431.5" y="-361" font-family="Times New Roman,serif" font-size="10.00">initialize_wasapi</text>
</g>
<!-- SIMPLE_AUDIO_c_init -->
<g id="node82" class="node">
<title>SIMPLE_AUDIO_c_init</title>
<polygon fill="lightcoral" stroke="black" points="460.5,-322.88 406.5,-322.88 406.5,-286.88 460.5,-286.88 460.5,-322.88"/>
<text xml:space="preserve" text-anchor="middle" x="433.5" y="-301" font-family="Times New Roman,serif" font-size="10.00">c_init</text>
</g>
<!-- SIMPLE_AUDIO_c_cleanup -->
<g id="node83" class="node">
<title>SIMPLE_AUDIO_c_cleanup</title>
<polygon fill="lightcoral" stroke="black" points="386.5,-322.88 328.5,-322.88 328.5,-286.88 386.5,-286.88 386.5,-322.88"/>
<text xml:space="preserve" text-anchor="middle" x="357.5" y="-301" font-family="Times New Roman,serif" font-size="10.00">c_cleanup</text>
</g>
<!-- SIMPLE_AUDIO_c_is_initialized -->
<g id="node84" class="node">
<title>SIMPLE_AUDIO_c_is_initialized</title>
<polygon fill="lightcoral" stroke="black" points="767.38,-682.88 687.62,-682.88 687.62,-646.88 767.38,-646.88 767.38,-682.88"/>
<text xml:space="preserve" text-anchor="middle" x="727.5" y="-661" font-family="Times New Roman,serif" font-size="10.00">c_is_initialized</text>
</g>
<!-- SIMPLE_AUDIO_c_device_count -->
<g id="node85" class="node">
<title>SIMPLE_AUDIO_c_device_count</title>
<polygon fill="lightcoral" stroke="black" points="607.12,-676.88 525.88,-676.88 525.88,-640.88 607.12,-640.88 607.12,-676.88"/>
<text xml:space="preserve" text-anchor="middle" x="566.5" y="-655" font-family="Times New Roman,serif" font-size="10.00">c_device_count</text>
</g>
<!-- SIMPLE_AUDIO_c_get_device -->
<g id="node86" class="node">
<title>SIMPLE_AUDIO_c_get_device</title>
<polygon fill="lightcoral" stroke="black" points="410.88,-718.88 340.13,-718.88 340.13,-682.88 410.88,-682.88 410.88,-718.88"/>
<text xml:space="preserve" text-anchor="middle" x="375.5" y="-697" font-family="Times New Roman,serif" font-size="10.00">c_get_device</text>
</g>
<!-- SIMPLE_AUDIO_c_get_default_device -->
<g id="node87" class="node">
<title>SIMPLE_AUDIO_c_get_default_device</title>
<polygon fill="lightcoral" stroke="black" points="546.75,-616.88 442.25,-616.88 442.25,-580.88 546.75,-580.88 546.75,-616.88"/>
<text xml:space="preserve" text-anchor="middle" x="494.5" y="-595" font-family="Times New Roman,serif" font-size="10.00">c_get_default_device</text>
</g>
<!-- SIMPLE_AUDIO_c_stream_create -->
<g id="node88" class="node">
<title>SIMPLE_AUDIO_c_stream_create</title>
<polygon fill="lightcoral" stroke="black" points="451.12,-556.88 369.88,-556.88 369.88,-520.88 451.12,-520.88 451.12,-556.88"/>
<text xml:space="preserve" text-anchor="middle" x="410.5" y="-535" font-family="Times New Roman,serif" font-size="10.00">c_stream_create</text>
</g>
<!-- LIB_TESTS_test_initialization -->
<g id="node89" class="node">
<title>LIB_TESTS_test_initialization</title>
<polygon fill="lightcoral" stroke="black" points="271,-1422.88 182.25,-1422.88 182.25,-1386.88 271,-1386.88 271,-1422.88"/>
<text xml:space="preserve" text-anchor="middle" x="226.62" y="-1401" font-family="Times New Roman,serif" font-size="10.00">test_initialization</text>
</g>
<!-- LIB_TESTS_test_output_device_enumeration -->
<g id="node90" class="node">
<title>LIB_TESTS_test_output_device_enumeration</title>
<polygon fill="lightcoral" stroke="black" points="214.12,-1254.88 63.12,-1254.88 63.12,-1218.88 214.12,-1218.88 214.12,-1254.88"/>
<text xml:space="preserve" text-anchor="middle" x="138.62" y="-1233" font-family="Times New Roman,serif" font-size="10.00">test_output_device_enumeration</text>
</g>
<!-- LIB_TESTS_test_input_device_enumeration -->
<g id="node91" class="node">
<title>LIB_TESTS_test_input_device_enumeration</title>
<polygon fill="lightcoral" stroke="black" points="320.5,-1310.88 174.75,-1310.88 174.75,-1274.88 320.5,-1274.88 320.5,-1310.88"/>
<text xml:space="preserve" text-anchor="middle" x="247.62" y="-1289" font-family="Times New Roman,serif" font-size="10.00">test_input_device_enumeration</text>
</g>
<!-- LIB_TESTS_test_default_output_device -->
<g id="node92" class="node">
<title>LIB_TESTS_test_default_output_device</title>
<polygon fill="lightcoral" stroke="black" points="268.87,-1198.87 140.37,-1198.87 140.37,-1162.87 268.87,-1162.87 268.87,-1198.87"/>
<text xml:space="preserve" text-anchor="middle" x="204.62" y="-1177" font-family="Times New Roman,serif" font-size="10.00">test_default_output_device</text>
</g>
<!-- LIB_TESTS_test_default_input_device -->
<g id="node93" class="node">
<title>LIB_TESTS_test_default_input_device</title>
<polygon fill="lightcoral" stroke="black" points="354.25,-1366.88 231,-1366.88 231,-1330.88 354.25,-1330.88 354.25,-1366.88"/>
<text xml:space="preserve" text-anchor="middle" x="292.62" y="-1345" font-family="Times New Roman,serif" font-size="10.00">test_default_input_device</text>
</g>
<!-- LIB_TESTS_test_device_properties -->
<g id="node94" class="node">
<title>LIB_TESTS_test_device_properties</title>
<polygon fill="lightcoral" stroke="black" points="206.75,-1366.88 98.5,-1366.88 98.5,-1330.88 206.75,-1330.88 206.75,-1366.88"/>
<text xml:space="preserve" text-anchor="middle" x="152.62" y="-1345" font-family="Times New Roman,serif" font-size="10.00">test_device_properties</text>
</g>
<!-- LIB_TESTS_test_device_count -->
<g id="node95" class="node">
<title>LIB_TESTS_test_device_count</title>
<polygon fill="lightcoral" stroke="black" points="231.12,-1142.88 140.12,-1142.88 140.12,-1106.88 231.12,-1106.88 231.12,-1142.88"/>
<text xml:space="preserve" text-anchor="middle" x="185.62" y="-1121" font-family="Times New Roman,serif" font-size="10.00">test_device_count</text>
</g>
<!-- LIB_TESTS_test_refresh -->
<g id="node96" class="node">
<title>LIB_TESTS_test_refresh</title>
<polygon fill="lightcoral" stroke="black" points="62.87,-1422.88 0.37,-1422.88 0.37,-1386.88 62.87,-1386.88 62.87,-1422.88"/>
<text xml:space="preserve" text-anchor="middle" x="31.62" y="-1401" font-family="Times New Roman,serif" font-size="10.00">test_refresh</text>
</g>
<!-- LIB_TESTS_test_buffer_creation -->
<g id="node97" class="node">
<title>LIB_TESTS_test_buffer_creation</title>
<polygon fill="lightcoral" stroke="black" points="125.5,-1198.87 27.75,-1198.87 27.75,-1162.87 125.5,-1162.87 125.5,-1198.87"/>
<text xml:space="preserve" text-anchor="middle" x="76.62" y="-1177" font-family="Times New Roman,serif" font-size="10.00">test_buffer_creation</text>
</g>
<!-- LIB_TESTS_test_buffer_8bit -->
<g id="node98" class="node">
<title>LIB_TESTS_test_buffer_8bit</title>
<polygon fill="lightcoral" stroke="black" points="81.25,-1366.88 0,-1366.88 0,-1330.88 81.25,-1330.88 81.25,-1366.88"/>
<text xml:space="preserve" text-anchor="middle" x="40.62" y="-1345" font-family="Times New Roman,serif" font-size="10.00">test_buffer_8bit</text>
</g>
<!-- LIB_TESTS_test_buffer_24bit -->
<g id="node99" class="node">
<title>LIB_TESTS_test_buffer_24bit</title>
<polygon fill="lightcoral" stroke="black" points="373.87,-1198.87 287.37,-1198.87 287.37,-1162.87 373.87,-1162.87 373.87,-1198.87"/>
<text xml:space="preserve" text-anchor="middle" x="330.62" y="-1177" font-family="Times New Roman,serif" font-size="10.00">test_buffer_24bit</text>
</g>
<!-- LIB_TESTS_test_buffer_32bit -->
<g id="node100" class="node">
<title>LIB_TESTS_test_buffer_32bit</title>
<polygon fill="lightcoral" stroke="black" points="163.87,-1422.88 77.37,-1422.88 77.37,-1386.88 163.87,-1386.88 163.87,-1422.88"/>
<text xml:space="preserve" text-anchor="middle" x="120.62" y="-1401" font-family="Times New Roman,serif" font-size="10.00">test_buffer_32bit</text>
</g>
<!-- LIB_TESTS_test_buffer_sample_access -->
<g id="node101" class="node">
<title>LIB_TESTS_test_buffer_sample_access</title>
<polygon fill="lightcoral" stroke="black" points="355.62,-1254.88 231.62,-1254.88 231.62,-1218.88 355.62,-1218.88 355.62,-1254.88"/>
<text xml:space="preserve" text-anchor="middle" x="293.62" y="-1233" font-family="Times New Roman,serif" font-size="10.00">test_buffer_sample_access</text>
</g>
<!-- LIB_TESTS_test_buffer_clear -->
<g id="node102" class="node">
<title>LIB_TESTS_test_buffer_clear</title>
<polygon fill="lightcoral" stroke="black" points="371.75,-1422.88 287.5,-1422.88 287.5,-1386.88 371.75,-1386.88 371.75,-1422.88"/>
<text xml:space="preserve" text-anchor="middle" x="329.62" y="-1401" font-family="Times New Roman,serif" font-size="10.00">test_buffer_clear</text>
</g>
<!-- LIB_TESTS_test_buffer_sine_wave -->
<g id="node103" class="node">
<title>LIB_TESTS_test_buffer_sine_wave</title>
<polygon fill="lightcoral" stroke="black" points="150.75,-1310.88 42.5,-1310.88 42.5,-1274.88 150.75,-1274.88 150.75,-1310.88"/>
<text xml:space="preserve" text-anchor="middle" x="96.62" y="-1289" font-family="Times New Roman,serif" font-size="10.00">test_buffer_sine_wave</text>
</g>
<!-- LIB_TESTS_test_empty_device -->
<g id="node104" class="node">
<title>LIB_TESTS_test_empty_device</title>
<polygon fill="lightcoral" stroke="black" points="100.25,-1142.88 7,-1142.88 7,-1106.88 100.25,-1106.88 100.25,-1142.88"/>
<text xml:space="preserve" text-anchor="middle" x="53.62" y="-1121" font-family="Times New Roman,serif" font-size="10.00">test_empty_device</text>
</g>
<!-- LIB_TESTS_test_empty_buffer -->
<g id="node105" class="node">
<title>LIB_TESTS_test_empty_buffer</title>
<polygon fill="lightcoral" stroke="black" points="342.75,-1142.88 252.5,-1142.88 252.5,-1106.88 342.75,-1106.88 342.75,-1142.88"/>
<text xml:space="preserve" text-anchor="middle" x="297.62" y="-1121" font-family="Times New Roman,serif" font-size="10.00">test_empty_buffer</text>
</g>
<!-- TEST_APP_make -->
<g id="node106" class="node">
<title>TEST_APP_make</title>
<polygon fill="lightcoral" stroke="black" points="260.44,-734.38 206.44,-734.38 206.44,-698.38 260.44,-698.38 260.44,-734.38"/>
<text xml:space="preserve" text-anchor="middle" x="233.44" y="-712.5" font-family="Times New Roman,serif" font-size="10.00">make</text>
</g>
<!-- TEST_APP_run_lib_tests -->
<g id="node107" class="node">
<title>TEST_APP_run_lib_tests</title>
<polygon fill="lightcoral" stroke="black" points="145.06,-624.38 75.81,-624.38 75.81,-588.38 145.06,-588.38 145.06,-624.38"/>
<text xml:space="preserve" text-anchor="middle" x="110.44" y="-602.5" font-family="Times New Roman,serif" font-size="10.00">run_lib_tests</text>
</g>
<!-- TEST_APP_run_test -->
<g id="node108" class="node">
<title>TEST_APP_run_test</title>
<polygon fill="lightcoral" stroke="black" points="205.44,-679.38 151.44,-679.38 151.44,-643.38 205.44,-643.38 205.44,-679.38"/>
<text xml:space="preserve" text-anchor="middle" x="178.44" y="-657.5" font-family="Times New Roman,serif" font-size="10.00">run_test</text>
</g>
<!-- TEST_APP_passed -->
<g id="node109" class="node">
<title>TEST_APP_passed</title>
<polygon fill="lightgray" stroke="black" points="130.44,-684.38 76.44,-684.38 76.44,-648.38 130.44,-648.38 130.44,-684.38"/>
<text xml:space="preserve" text-anchor="middle" x="103.44" y="-662.5" font-family="Times New Roman,serif" font-size="10.00">passed</text>
</g>
<!-- TEST_APP_failed -->
<g id="node110" class="node">
<title>TEST_APP_failed</title>
<polygon fill="lightgray" stroke="black" points="220.44,-594.38 166.44,-594.38 166.44,-558.38 220.44,-558.38 220.44,-594.38"/>
<text xml:space="preserve" text-anchor="middle" x="193.44" y="-572.5" font-family="Times New Roman,serif" font-size="10.00">failed</text>
</g>
<!-- TEST_APP_lib_tests -->
<g id="node111" class="node">
<title>TEST_APP_lib_tests</title>
<polygon fill="lightgray" stroke="black" points="95.44,-569.38 41.44,-569.38 41.44,-533.38 95.44,-533.38 95.44,-569.38"/>
<text xml:space="preserve" text-anchor="middle" x="68.44" y="-547.5" font-family="Times New Roman,serif" font-size="10.00">lib_tests</text>
</g>
<!-- legend_full -->
<g id="node112" class="node">
<title>legend_full</title>
<polygon fill="palegreen" stroke="black" points="784.81,-105 670.56,-105 670.56,-64 784.81,-64 784.81,-105"/>
<text xml:space="preserve" text-anchor="middle" x="727.69" y="-87.7" font-family="Times New Roman,serif" font-size="14.00">Full Contract</text>
<text xml:space="preserve" text-anchor="middle" x="727.69" y="-71.2" font-family="Times New Roman,serif" font-size="14.00">(require + ensure)</text>
</g>
<!-- legend_partial -->
<g id="node113" class="node">
<title>legend_partial</title>
<polygon fill="khaki" stroke="black" points="795.31,-41 678.06,-41 678.06,0 795.31,0 795.31,-41"/>
<text xml:space="preserve" text-anchor="middle" x="736.69" y="-23.7" font-family="Times New Roman,serif" font-size="14.00">Partial Contract</text>
<text xml:space="preserve" text-anchor="middle" x="736.69" y="-7.2" font-family="Times New Roman,serif" font-size="14.00">(require or ensure)</text>
</g>
<!-- legend_none -->
<g id="node114" class="node">
<title>legend_none</title>
<polygon fill="lightcoral" stroke="black" points="761.06,-163.5 678.31,-163.5 678.31,-127.5 761.06,-127.5 761.06,-163.5"/>
<text xml:space="preserve" text-anchor="middle" x="719.69" y="-140.45" font-family="Times New Roman,serif" font-size="14.00">No Contract</text>
</g>
<!-- legend_attr -->
<g id="node115" class="node">
<title>legend_attr</title>
<polygon fill="lightgray" stroke="black" points="655.06,-177 590.31,-177 590.31,-136 655.06,-136 655.06,-177"/>
<text xml:space="preserve" text-anchor="middle" x="622.69" y="-159.7" font-family="Times New Roman,serif" font-size="14.00">Attribute</text>
<text xml:space="preserve" text-anchor="middle" x="622.69" y="-143.2" font-family="Times New Roman,serif" font-size="14.00">(n/a)</text>
</g>
<!-- legend_stats -->
<g id="node116" class="node">
<title>legend_stats</title>
<polygon fill="white" stroke="black" points="640.81,-115 574.56,-115 574.56,-8 646.81,-8 646.81,-109 640.81,-115"/>
<polyline fill="none" stroke="black" points="640.81,-115 640.81,-109"/>
<polyline fill="none" stroke="black" points="646.81,-109 640.81,-109"/>
<text xml:space="preserve" text-anchor="middle" x="610.69" y="-97.7" font-family="Times New Roman,serif" font-size="14.00">Statistics</text>
<text xml:space="preserve" text-anchor="middle" x="610.69" y="-81.2" font-family="Times New Roman,serif" font-size="14.00">Full: 10</text>
<text xml:space="preserve" text-anchor="middle" x="610.69" y="-64.7" font-family="Times New Roman,serif" font-size="14.00">Partial: 18</text>
<text xml:space="preserve" text-anchor="middle" x="610.69" y="-48.2" font-family="Times New Roman,serif" font-size="14.00">None: 54</text>
<text xml:space="preserve" text-anchor="middle" x="610.69" y="-31.7" font-family="Times New Roman,serif" font-size="14.00">Attr: 29</text>
<text xml:space="preserve" text-anchor="middle" x="610.69" y="-15.2" font-family="Times New Roman,serif" font-size="14.00">Total: 111</text>
</g>
</g>
</svg>
