<?xml version="1.0" encoding="UTF-8" standalone="no"?>
<!DOCTYPE svg PUBLIC "-//W3C//DTD SVG 1.1//EN"
 "http://www.w3.org/Graphics/SVG/1.1/DTD/svg11.dtd">
<!-- Generated by graphviz version 14.1.1 (20251213.1925)
 -->
<!-- Title: Dependencies Pages: 1 -->
<svg width="337pt" height="285pt"
 viewBox="0.00 0.00 337.00 285.00" xmlns="http://www.w3.org/2000/svg" xmlns:xlink="http://www.w3.org/1999/xlink">
<g id="graph0" class="graph" transform="scale(1 1) rotate(0) translate(4 280.5)">
<title>Dependencies</title>
<polygon fill="white" stroke="none" points="-4,4 -4,-280.5 333,-280.5 333,4 -4,4"/>
<text xml:space="preserve" text-anchor="middle" x="164.5" y="-7.2" font-family="Times New Roman,serif" font-size="14.00">simple_audio &#45; Dependencies</text>
<!-- simple_audio -->
<g id="node1" class="node">
<title>simple_audio</title>
<polygon fill="lightblue" stroke="black" points="89.5,-168.5 0,-168.5 0,-132.5 89.5,-132.5 89.5,-168.5"/>
<text xml:space="preserve" text-anchor="middle" x="44.75" y="-145.45" font-family="Times New Roman,serif" font-size="14.00">simple_audio</text>
</g>
<!-- simple_file -->
<g id="node2" class="node">
<title>simple_file</title>
<polygon fill="lightblue" stroke="black" points="320,-276.5 242.5,-276.5 242.5,-240.5 320,-240.5 320,-276.5"/>
<text xml:space="preserve" text-anchor="middle" x="281.25" y="-253.45" font-family="Times New Roman,serif" font-size="14.00">simple_file</text>
</g>
<!-- simple_audio&#45;&gt;simple_file -->
<g id="edge1" class="edge">
<title>simple_audio&#45;&gt;simple_file</title>
<path fill="none" stroke="black" stroke-dasharray="5,2" d="M45,-168.82C45,-199.63 45,-258.5 45,-258.5 45,-258.5 230.72,-258.5 230.72,-258.5"/>
<polygon fill="black" stroke="black" points="230.72,-262 240.72,-258.5 230.72,-255 230.72,-262"/>
</g>
<!-- simple_testing -->
<g id="node3" class="node">
<title>simple_testing</title>
<polygon fill="lightblue" stroke="black" points="329,-204.5 233.5,-204.5 233.5,-168.5 329,-168.5 329,-204.5"/>
<text xml:space="preserve" text-anchor="middle" x="281.25" y="-181.45" font-family="Times New Roman,serif" font-size="14.00">simple_testing</text>
</g>
<!-- simple_audio&#45;&gt;simple_testing -->
<g id="edge2" class="edge">
<title>simple_audio&#45;&gt;simple_testing</title>
<path fill="none" stroke="black" stroke-dasharray="5,2" d="M89.96,-156.5C148.75,-156.5 244,-156.5 244,-156.5 244,-156.5 244,-157.65 244,-157.65"/>
<polygon fill="black" stroke="black" points="240.5,-156.5 244,-166.5 247.5,-156.5 240.5,-156.5"/>
</g>
<!-- base -->
<g id="node4" class="node">
<title>base</title>
<polygon fill="lightgray" stroke="black" points="308.25,-132.5 254.25,-132.5 254.25,-96.5 308.25,-96.5 308.25,-132.5"/>
<text xml:space="preserve" text-anchor="middle" x="281.25" y="-109.45" font-family="Times New Roman,serif" font-size="14.00">base</text>
</g>
<!-- simple_audio&#45;&gt;base -->
<g id="edge3" class="edge">
<title>simple_audio&#45;&gt;base</title>
<path fill="none" stroke="black" stroke-dasharray="5,2" d="M89.74,-144.5C158.29,-144.5 281,-144.5 281,-144.5 281,-144.5 281,-143.35 281,-143.35"/>
<polygon fill="black" stroke="black" points="284.5,-144.5 281,-134.5 277.5,-144.5 284.5,-144.5"/>
</g>
<!-- wel -->
<g id="node5" class="node">
<title>wel</title>
<polygon fill="lightgray" stroke="black" points="308.25,-60.5 254.25,-60.5 254.25,-24.5 308.25,-24.5 308.25,-60.5"/>
<text xml:space="preserve" text-anchor="middle" x="281.25" y="-37.45" font-family="Times New Roman,serif" font-size="14.00">wel</text>
</g>
<!-- simple_audio&#45;&gt;wel -->
<g id="edge4" class="edge">
<title>simple_audio&#45;&gt;wel</title>
<path fill="none" stroke="black" stroke-dasharray="5,2" d="M45,-132.18C45,-101.37 45,-42.5 45,-42.5 45,-42.5 242.64,-42.5 242.64,-42.5"/>
<polygon fill="black" stroke="black" points="242.64,-46 252.64,-42.5 242.64,-39 242.64,-46"/>
</g>
</g>
</svg>
